<svg width="684" height="499" viewBox="0 0 684 499" fill="none" xmlns="http://www.w3.org/2000/svg">
<path d="M88.3454 287.738L274.534 354.211C283.266 357.709 292.71 359.633 302.307 359.868C311.903 360.104 321.455 358.647 330.397 355.584C339.339 352.521 347.488 347.914 354.36 342.036C361.233 336.158 366.689 329.129 370.406 321.367L416.281 207.278L275.788 153.534C261.212 147.271 244.706 145.339 228.766 148.033C212.827 150.726 198.321 157.898 187.443 168.463L88.3454 287.738ZM252.313 397.74L0 309.424L145.689 152.277C176.691 118.962 241.023 110.79 291.737 130.277L461.439 195.807L413.951 337.239C396.031 391.455 322.559 422.255 252.671 397.583" fill="#E68E48"/>
<path d="M345.675 25.7723L309.835 75.2735C301.054 87.2167 311.806 104.503 334.206 113.146L437.963 153.69L461.617 94.7601C465.918 83.9169 454.27 69.3022 435.633 61.7591L345.675 25.7723ZM463.409 189.52L320.05 134.361C276.683 117.546 257.33 84.2309 275.608 62.0732L326.68 0L442.085 47.1441C475.595 60.6587 497.457 86.9024 490.648 107.174L463.409 189.52Z" fill="#088ECB"/>
<path d="M496.736 238.081L472.365 330.641C470.123 343.297 472.79 356.247 479.938 367.416C487.086 378.585 498.302 387.327 511.789 392.242L641.35 439.386L644.396 329.384C643.649 318.632 639.564 308.265 632.584 299.402C625.604 290.539 615.994 283.517 604.793 279.096L496.736 238.081ZM684 498.474L504.8 434.043C449.965 414.4 417.53 358.77 431.687 315.24L468.781 198.637L607.123 252.067C627.426 260.23 644.922 272.936 657.85 288.908C670.779 304.879 678.685 323.555 680.774 343.055L684 498.474Z" fill="#93268E"/>
<path d="M581.506 167.203L631.145 186.847C639.746 190.147 646.735 188.104 646.914 182.447V151.017L601.039 132.474C593.154 129.331 586.166 130.745 585.449 135.774L581.506 167.203ZM674.69 144.26L675.765 193.918C675.765 211.362 655.695 218.276 630.07 208.218L547.279 175.532L557.494 124.302C560.361 110.002 580.969 106.545 603.727 115.659L674.69 144.26Z" fill="#89A845"/>
</svg>
